<?xml version="1.0" standalone="no"?>
<!DOCTYPE svg PUBLIC "-//W3C//DTD SVG 20010904//EN"
 "http://www.w3.org/TR/2001/REC-SVG-20010904/DTD/svg10.dtd">
<svg version="1.0" xmlns="http://www.w3.org/2000/svg"
 width="64.000000pt" height="64.000000pt" viewBox="0 0 64.000000 64.000000"
 preserveAspectRatio="xMidYMid meet">
<metadata>
Created by potrace 1.10, written by Peter Selinger 2001-2011
</metadata>
<g transform="translate(0.000000,64.000000) scale(0.100000,-0.100000)"
fill="#000000" stroke="none">
<path d="M201 490 c-10 -33 -18 -41 -51 -51 -44 -13 -44 -24 1 -34 24 -5 35
-17 49 -48 l19 -41 10 27 c6 16 11 33 11 38 0 5 6 12 13 14 6 2 25 9 42 15
l29 11 -41 19 c-31 14 -43 25 -48 49 -10 45 -21 45 -34 1z"/>
<path d="M428 415 c-3 -6 -8 -22 -12 -38 -5 -20 -17 -32 -48 -44 l-42 -17 41
-17 c32 -13 43 -24 48 -48 10 -45 20 -45 35 0 11 32 20 41 42 46 42 8 43 20 3
34 -27 10 -37 21 -48 53 -7 22 -16 36 -19 31z"/>
<path d="M254 273 c-14 -27 -28 -41 -51 -48 -18 -5 -33 -12 -33 -16 0 -3 18
-13 40 -22 32 -12 41 -22 46 -46 8 -40 17 -39 32 3 10 28 21 38 55 49 l42 14
-38 12 c-30 10 -43 22 -57 53 l-18 40 -18 -39z"/>
</g>
</svg>
